<?xml version="1.0" standalone="no"?><!DOCTYPE svg PUBLIC "-//W3C//DTD SVG 1.1//EN" "http://www.w3.org/Graphics/SVG/1.1/DTD/svg11.dtd"><svg t="1771259301271" class="icon" viewBox="0 0 1024 1024" version="1.1" xmlns="http://www.w3.org/2000/svg" p-id="61954" xmlns:xlink="http://www.w3.org/1999/xlink" width="200" height="200"><path d="M0 0h1024v1024H0z" fill="#111216" fill-opacity="0" p-id="61955"></path><path d="M846.165333 85.333333a93.866667 93.866667 0 0 1 93.674667 88.064l40.341333 651.733334c-7.296-43.093333-48.426667-76.096-98.069333-76.096H141.866667c-49.685333 0-90.837333 33.066667-98.090667 76.202666L84.16 173.397333A93.866667 93.866667 0 0 1 177.834667 85.333333h668.330666z" fill="#0067FF" p-id="61956"></path><path d="M385.28 550.4l-4.202667-0.106667c-44.693333-2.218667-80.256-39.530667-80.256-85.226666 0-47.146667 37.802667-85.333333 84.48-85.333334 6.912 0 13.653333 0.853333 20.096 2.432a98.346667 98.346667 0 0 1-1.621333-17.813333c0-54.336 43.605333-98.389333 97.408-98.389333 50.645333 0 92.266667 39.04 96.981333 88.96 8.426667-2.368 17.301333-3.626667 26.496-3.626667 54.421333 0 98.56 44.565333 98.56 99.541333 0 54.997333-44.138667 99.562667-98.56 99.562667H385.28z" fill="#FFFFFF" opacity=".8" p-id="61957"></path><path d="M882.112 749.034667c54.784 0 99.221333 40.213333 99.221333 89.813333v10.026667C981.333333 898.432 936.896 938.666667 882.112 938.666667H141.866667C87.104 938.666667 42.666667 898.453333 42.666667 848.853333v-10.026666c0-49.578667 44.437333-89.792 99.221333-89.792H882.133333z" fill="#0067FF" opacity=".5" p-id="61958"></path><path d="M746.666667 820.138667H277.333333v47.424h469.333334z" fill="#FFFFFF" opacity=".8" p-id="61959"></path></svg>