<?xml version="1.0" encoding="UTF-8"?>
<svg width="191px" height="191px" viewBox="0 0 191 191" version="1.1" xmlns="http://www.w3.org/2000/svg" xmlns:xlink="http://www.w3.org/1999/xlink">
    <title>编组</title>
    <g id="App-Icons" stroke="none" stroke-width="1" fill="none" fill-rule="evenodd">
        <g id="123云盘" transform="translate(-4, -5)">
            <g id="编组" transform="translate(4.6359, 5.141)">
                <path d="M190.319675,95.2145125 C190.319675,114.036735 190.408563,132.858957 190.297452,151.681179 C190.208563,166.547846 183.586341,177.836735 170.830786,185.414512 C165.141897,188.79229 158.87523,190.303401 152.27523,190.325624 C114.230786,190.347846 76.1863412,190.436735 38.1196745,190.303401 C16.8307856,190.236735 0.14189674,173.458957 0.0752300721,152.125624 C-0.0358810392,114.125624 -0.0136588166,76.1478458 0.0752300721,38.1478458 C0.119674515,16.7256236 17.0085634,0.0811791389 38.6085634,0.0367346936 C65.0085634,-0.0299319724 91.4085634,0.014512471 117.808563,0.0145124729 C128.964119,0.0145124729 140.141897,-0.00770974974 151.297452,0.0145124729 C171.87523,0.0367346956 187.764119,14.170068 190.164119,34.6145125 C190.341897,36.1922903 190.297452,37.7922903 190.297452,39.370068 C190.319675,57.9922903 190.319675,76.5922903 190.319675,95.2145125 L190.319675,95.2145125 Z" id="-path" fill="#597DFB"></path>
                <path d="M45.8085634,50.9034014 L45.8085634,66.6145125 L71.6085634,66.6145125 C73.964119,66.6145125 76.2974523,66.7478458 78.5863412,67.3034014 C84.0752301,68.5922902 86.6974523,71.970068 86.5863412,77.6811791 C86.4974523,82.4367347 83.2752301,85.9922903 78.1863412,86.970068 C74.4307856,87.6811791 70.6307856,87.2589569 66.8530078,87.370068 C56.4974523,87.6811791 49.2530078,93.0589569 46.0530078,102.903401 C44.8974523,106.458957 44.364119,110.147846 44.3418967,113.881179 C44.3196745,121.814512 44.3196745,129.725624 44.3418967,137.658957 C44.3418967,138.258957 44.164119,138.903401 44.6530078,139.458957 L105.008563,139.458957 L105.008563,123.770068 L63.1863412,123.770068 C63.4085634,119.370068 62.8752301,115.170068 63.6530078,111.014512 C64.3196745,107.370068 66.4530078,105.147846 69.9863412,104.170068 C71.5196745,103.747846 73.0752301,103.503401 74.6752301,103.503401 C78.4752301,103.481179 82.2752301,103.636735 86.0307856,103.370068 C94.3863412,102.770068 100.897452,99.2367347 104.430786,91.1922903 C107.853008,83.4367347 108.497452,75.4811791 106.07523,67.4145125 C103.408563,58.5034014 97.5196745,52.9922903 88.1863412,51.4811791 C85.9418967,51.1256236 83.6752301,50.9256236 81.4085634,50.9034014 C70.0307856,50.8145125 58.6752301,50.8145125 47.2974523,50.7922903 C46.8530079,50.7922903 46.3863412,50.8589569 45.8085634,50.9034014 Z" id="-path" fill="#FFFFFF"></path>
                <path d="M116.808563,123.814512 L116.808563,139.325624 C117.053008,139.436735 117.186341,139.525624 117.297452,139.525624 C129.07523,139.436735 140.87523,140.170068 152.608563,138.970068 C159.053008,138.303401 164.630786,135.547846 168.941897,130.570068 C175.741897,122.725624 176.297452,105.214512 163.964119,96.0811791 C163.341897,95.6145125 162.564119,95.3034014 162.164119,94.4367347 C165.964119,92.0145125 169.230786,89.2145125 171.297452,85.2367347 C179.186341,70.1256236 168.430786,51.5034014 151.364119,51.0145125 C140.341897,50.7034014 129.319675,50.8589569 118.297452,50.7922903 C117.830786,50.7922903 117.364119,50.8589569 116.87523,50.9034014 L116.87523,66.6367347 C124.497452,66.6367347 131.941897,66.6145125 139.386341,66.6367347 C141.097452,66.6367347 142.853008,66.6367347 144.541897,66.8811791 C150.119675,67.7034014 152.897452,71.4367347 152.697452,77.6367347 C152.519675,83.1256236 149.741897,85.9256236 144.097452,86.5256236 C138.519675,87.1256236 132.941897,86.7034014 127.364119,86.8589569 C126.630786,86.8811791 125.853008,86.6145125 125.164119,87.170068 L125.164119,102.347846 C126.053008,102.770068 126.897452,102.570068 127.697452,102.59229 C133.208563,102.770068 138.719675,102.258957 144.208563,102.947846 C147.830786,103.39229 150.808563,104.836735 152.008563,108.458957 C153.364119,112.59229 153.453008,116.747846 150.541897,120.436735 C149.586341,121.658957 148.297452,122.458957 146.808563,122.903401 C144.941897,123.458957 143.053008,123.770068 141.119675,123.770068 C133.808563,123.79229 126.519675,123.79229 119.208563,123.814512 L116.808563,123.814512 Z" id="-path" fill="#FFFFFF"></path>
                <polygon id="-path" fill="#FFFFFF" points="35.0085634 139.458957 35.0085634 50.9034014 16.2530078 50.9034014 16.2530078 139.458957 35.0085634 139.458957"></polygon>
            </g>
        </g>
    </g>
</svg>