<svg width="76" height="63" viewBox="0 0 76 63" fill="none" xmlns="http://www.w3.org/2000/svg">
<path d="M38 4.10031V3.05964C38 1.36981 36.6309 0 34.9421 0H3.05786C1.36914 0 0 1.36981 0 3.05964V58.231H76V7.15995C76 5.47012 74.6309 4.10031 72.9421 4.10031H38Z" fill="#F9DF5C"/>
<path d="M73.3365 8.50909H3.3739V58.7906H73.3365V8.50909Z" fill="white"/>
<path d="M36.9161 14.7961L35.7879 17.9258H3.05786C1.36914 17.9258 0 19.2956 0 20.9854V59.9404C0 61.6302 1.36914 63 3.05786 63H72.9421C74.6309 63 76 61.6302 76 59.9404V15.8342C76 14.1444 74.6309 12.7746 72.9421 12.7746H39.7926C38.5039 12.7746 37.3534 13.583 36.9161 14.7961Z" fill="#F3CC30"/>
<path d="M76 59.9404V34.5427C54.8901 55.0881 18.2747 60.5855 0.85022 62.0538C1.40679 62.6358 2.18921 63 3.05789 63H72.942C74.6309 63 76 61.6301 76 59.9404Z" fill="#EDBD31"/>
<path d="M30.8628 20.3884H5.02001C3.65632 20.3884 2.5509 21.4945 2.5509 22.859V28.3317C6.89785 25.3519 16.7068 21.5983 30.8628 20.3884Z" fill="#F6D738"/>
</svg>
