<svg class="icon" viewBox="0 0 1024 1024" version="1.1" xmlns="http://www.w3.org/2000/svg" width="200" height="200">
  <path
    d="M689.7664 272.042667H511.658667v204.8h204.014933c-2.2528-73.1136-11.229867-142.6432-25.9072-204.8zM511.658667 1.024v236.885333h169.198933C643.959467 106.222933 581.8368 14.097067 511.658667 1.024z m-34.133334 236.885333V1.024c-70.178133 13.038933-132.3008 105.1648-169.198933 236.885333h169.198933z m85.333334 307.2h152.814933c0.341333-11.332267 0.785067-22.6304 0.785067-34.133333h-204.8v85.333333c0-28.228267 22.971733-51.2 51.2-51.2z m186.914133-68.266666h238.865067a490.632533 490.632533 0 0 0-52.292267-204.8H725.333333c13.9264 62.293333 22.391467 131.310933 24.439467 204.8zM665.6 676.932267a17.271467 17.271467 0 0 0 11.810133 4.7104h285.2864c1.297067 0 2.56 0.2048 3.822934 0.4096l4.471466 0.512 1.467734 0.068266a17.066667 17.066667 0 0 0 17.066666-17.066666v-26.589867c0-32.938667-28.0576-59.733333-62.5664-59.733333H562.858667a17.066667 17.066667 0 0 0 0 34.133333h4.881066c37.956267 0 63.488 27.306667 84.036267 49.220267v0.034133c4.027733 4.334933 9.557333 10.205867 13.824 14.301867z m298.359467-124.586667a17.066667 17.066667 0 0 0 23.3472-14.370133c0.785067-8.9088 0.955733-17.988267 1.3312-27.0336H750.592c0 11.5712-0.477867 22.8352-0.785067 34.167466h177.152c12.5952 0 25.053867 2.423467 37.000534 7.236267zM917.333333 237.909333c-69.8368-114.8928-184.661333-199.406933-320.238933-228.113066 50.961067 46.318933 92.945067 126.327467 119.978667 228.113066h200.260266zM340.992 876.100267V749.909333H299.383467c10.990933 46.762667 25.156267 89.224533 41.608533 126.190934zM273.5104 476.842667h204.014933v-204.8H299.383467c-14.677333 62.1568-23.6544 131.6864-25.873067 204.8z m-201.3184 273.032533c56.0128 92.023467 141.346133 165.956267 245.623467 205.892267a17.134933 17.134933 0 0 0 15.7696-1.877334 16.964267 16.964267 0 0 0 5.597866-6.724266c-31.982933-51.6096-57.856-118.9888-75.3664-197.290667H72.192z m890.4704-34.0992H665.258667c-10.5472 0-26.0096-16.520533-38.434134-29.832533-17.681067-18.909867-35.9424-38.434133-59.0848-38.434134h-131.618133c-33.621333 0-60.962133 26.794667-60.962133 59.733334v256c0 32.938667 27.3408 59.733333 60.962133 59.733333h526.609067c33.621333 0 60.962133-26.794667 60.962133-59.733333v-187.733334c-0.034133-32.938667-27.374933-59.733333-61.0304-59.733333z m-485.137067-102.4v-102.4h-204.8c0 72.3968 7.031467 141.687467 19.387734 204.8H340.992v-8.533333c0-51.746133 42.666667-93.866667 95.095467-93.866667h41.437866zM392.055467 9.796267C256.512 38.5024 141.653333 123.016533 71.816533 237.909333h200.260267c27.0336-101.7856 68.983467-181.794133 119.978667-228.113066zM263.816533 272.042667H52.804267a491.144533 491.144533 0 0 0-52.292267 204.8h238.865067c2.048-73.489067 10.5472-142.506667 24.439466-204.8z m-25.224533 238.933333H0.341333a491.246933 491.246933 0 0 0 52.8384 204.8h203.605334a1125.376 1125.376 0 0 1-18.193067-204.8z"
    fill="#1296db"></path>
</svg>