<svg width="41" height="38" viewBox="0 0 41 38" fill="none" xmlns="http://www.w3.org/2000/svg">
<path d="M39.8604 2.13672L26.209 34.0156L26.2041 34.0293L26.1982 34.041L25.75 33.8193L26.1973 34.042L26.1963 34.043C26.1959 34.0438 26.1959 34.0456 26.1953 34.0469C26.194 34.0496 26.1917 34.0533 26.1895 34.0576C26.1849 34.0666 26.1781 34.0793 26.1699 34.0947C26.1534 34.1258 26.1298 34.17 26.0986 34.2246C26.0361 34.334 25.9431 34.4876 25.8203 34.6699C25.5752 35.0339 25.2059 35.5186 24.707 36.002C23.7091 36.9688 22.1673 37.953 20.0605 37.9189C17.9615 37.8849 16.4732 36.9038 15.5225 35.9482C15.0479 35.4713 14.7033 34.9972 14.4766 34.6416C14.363 34.4634 14.2778 34.3139 14.2207 34.207C14.1922 34.1536 14.1703 34.1106 14.1553 34.0801C14.1478 34.0649 14.1419 34.0528 14.1377 34.0439C14.1356 34.0396 14.1341 34.036 14.1328 34.0332C14.1322 34.0318 14.1313 34.0303 14.1309 34.0293V34.0283L14.1299 34.0273L14.1221 34.0098L12.4258 29.8896L12.2666 29.502L12.6201 29.2773L17.1572 26.3975L17.6611 26.0771L17.8877 26.6299L19.9219 31.5879C19.9256 31.5923 19.9312 31.5998 19.9404 31.6074C19.9639 31.6266 20.0348 31.6761 20.1973 31.6797C20.3488 31.6829 20.4269 31.6362 20.4629 31.6084C20.4785 31.5963 20.4889 31.5834 20.4961 31.5752L33.0215 1.74609L33.1504 1.44043H40.1582L39.8604 2.13672ZM3.02148 4.23633C3.26273 4.23706 3.46912 4.26097 3.61621 4.28516C3.68981 4.29727 3.75005 4.30963 3.79297 4.31934C3.81424 4.32415 3.83194 4.32879 3.84473 4.33203C3.85091 4.3336 3.85631 4.33486 3.86035 4.33594C3.86237 4.33643 3.86476 4.33652 3.86621 4.33691L3.86816 4.33789H3.86914L3.94141 4.3584L4.00391 4.39844L23.2168 16.6377L23.2705 16.6719L23.3135 16.7178L23.3145 16.7188L23.3154 16.7207C23.3164 16.7216 23.3181 16.7223 23.3193 16.7236C23.322 16.7265 23.3251 16.7309 23.3291 16.7354C23.3371 16.7443 23.3485 16.7564 23.3613 16.7715C23.3871 16.8017 23.422 16.8441 23.4629 16.8975C23.5448 17.0046 23.6524 17.1586 23.7598 17.3506C23.9723 17.7305 24.1982 18.2856 24.1982 18.9395C24.1982 19.5932 23.9722 20.1484 23.7598 20.5283C23.6524 20.7202 23.5448 20.8744 23.4629 20.9814C23.4219 21.0351 23.3872 21.0782 23.3613 21.1084C23.3485 21.1234 23.3371 21.1356 23.3291 21.1445C23.3253 21.1488 23.3219 21.1525 23.3193 21.1553L23.3145 21.1602V21.1611H23.3135L23.2705 21.207L23.2178 21.2402L3.96484 33.5605L3.83789 33.6416L3.68652 33.6396H3.68457C3.68356 33.6396 3.68137 33.6388 3.67969 33.6387C3.67635 33.6386 3.67159 33.6388 3.66602 33.6387C3.65385 33.6383 3.63605 33.6375 3.61426 33.6367C3.57048 33.6351 3.50795 33.6326 3.43164 33.6279C3.27927 33.6185 3.06802 33.6013 2.83398 33.5703C2.39125 33.5116 1.7725 33.3925 1.34082 33.124C0.900276 32.8498 0.592468 32.4005 0.40625 32.0693C0.309111 31.8966 0.235976 31.7388 0.186523 31.624C0.161689 31.5664 0.142098 31.5185 0.128906 31.4844C0.122378 31.4675 0.117922 31.4533 0.114258 31.4434C0.112463 31.4385 0.110473 31.4347 0.109375 31.4316C0.108846 31.4302 0.108763 31.4288 0.108398 31.4277L0.107422 31.4258L0.579102 31.2598L0.107422 31.4248L0.0791016 31.3457V31.2607L0 6.78125V6.76074L0.00195312 6.74023L0.5 6.78027L0.00195312 6.73926V6.73535C0.00211474 6.73374 0.00273971 6.7315 0.00292969 6.72949C0.00332675 6.72521 0.00324341 6.71988 0.00390625 6.71387C0.00530281 6.70127 0.00791025 6.68471 0.0107422 6.66504C0.0164578 6.6254 0.0257327 6.57142 0.0400391 6.50684C0.0686159 6.3779 0.117852 6.20216 0.204102 6.00391C0.37747 5.60553 0.700303 5.11134 1.29004 4.72266C1.89292 4.32544 2.54355 4.23491 3.02148 4.23633ZM4.49707 27.9326L5.2666 27.4414L17.8516 19.4014L18.5078 18.9824L17.8535 18.5596L5.26855 10.4404L4.49707 9.94238V27.9326ZM12.4453 0.31543L16.2324 9.83496L16.8086 11.2812L15.498 10.4404L7.64746 5.40039L7.51172 5.31348L7.45215 5.16406L5.67676 0.68457L5.40625 0H12.3203L12.4453 0.31543Z" fill="url(#paint0_linear_4_171)"/>
<defs>
<linearGradient id="paint0_linear_4_171" x1="1.14039" y1="33.3589" x2="40.4236" y2="1.97543" gradientUnits="userSpaceOnUse">
<stop stop-color="#0C2D9E"/>
<stop offset="1" stop-color="#13E0EA"/>
</linearGradient>
</defs>
</svg>
