<?xml version="1.0" encoding="UTF-8"?>
<svg width="138px" height="126px" viewBox="0 0 138 126" version="1.1" xmlns="http://www.w3.org/2000/svg" xmlns:xlink="http://www.w3.org/1999/xlink">
    <title>形状</title>
    <g id="App-Icons" stroke="none" stroke-width="1" fill="none" fill-rule="evenodd">
        <g id="编组" transform="translate(-31, -39)" fill="#0091FF">
            <path d="M47.15,61.975 C53.4333333,55.2416667 58.5083333,51.2083333 62.375,49.875 C77.6,44.65 98.3,46.125 114.875,45.4 C122.725,45.05 133.025,43.075 145.775,39.475 C146.077062,39.3858239 146.403673,39.4709793 146.623741,39.6962874 C146.84381,39.9215955 146.921258,40.2501195 146.825,40.55 C142.275,54.5 115.1,59.9 102.4,59.575 C83.7833333,59.1083333 65.55,60.2666667 47.7,63.05 C47.434129,63.0991868 47.1713212,62.968462 47.0468057,62.7250908 C46.9222902,62.4817196 46.9638097,62.1799262 47.15,61.975 L47.15,61.975 Z M31.4,93.725 C40.8,87.7583333 47.2916667,83.925 50.875,82.225 C68.1,74.15 87.25,75.925 113.125,76 C131.708333,76.05 149.741667,73.725 167.225,69.025 C167.592979,68.9361227 167.980929,69.0827563 168.194098,69.3912913 C168.407268,69.6998263 168.399622,70.1036323 168.175,70.4 C154.625,89.225 130.5,90.475 108.825,91.35 C103.45,91.575 98.4,94.075 94.25,98.175 C86.0666667,106.308333 77.925,114.966667 69.825,124.15 C60.575,134.625 62.925,146.1 77.75,148.275 C95.3666667,150.858333 111.75,150.833333 126.9,148.2 C130.433333,147.583333 134.125,145.383333 137.975,141.6 C149.675,130.05 136.65,113.6 122.525,114.575 C117.141667,114.941667 113.333333,117.366667 111.1,121.85 C105.525,133.05 122.275,137.6 124.625,129.825 C124.783976,129.285632 125.289745,128.923762 125.851556,128.947417 C126.413368,128.971072 126.886926,129.374177 127,129.925 C130.3,144.95 96.775,146.825 99.975,120.05 C102.475,99.05 128.5,99.425 142.45,106.425 C165.3,117.925 164.625,153.675 140.9,162.75 C136.766667,164.333333 130.416667,165.075 121.85,164.975 C111.216667,164.858333 95.4333333,164.775 74.5,164.725 C55.875,164.675 42.875,153.225 45.175,133.775 C46.575,121.85 69.675,103.1 78.575,95.175 C79.1457819,94.6582538 79.3788843,93.8652547 79.1785294,93.1218325 C78.9781745,92.3784103 78.3781516,91.8099414 77.625,91.65 C74.4416667,91 70.6666667,90.9416667 66.3,91.475 C52.2333333,93.175 40.725,94.3333333 31.775,94.95 C31.4776036,94.9723898 31.2089702,94.7875043 31.1209042,94.4998219 C31.0328382,94.2121395 31.1474612,93.8939247 31.4,93.725 L31.4,93.725 Z" id="形状" fill-rule="nonzero"></path>
        </g>
    </g>
</svg>