<?xml version="1.0" encoding="UTF-8"?>
<svg width="76px" height="63px" viewBox="0 0 76 63" version="1.1" xmlns="http://www.w3.org/2000/svg" xmlns:xlink="http://www.w3.org/1999/xlink">
    <title>SMB</title>
    <g id="SMB" stroke="none" fill="none">
        <g id="编组" stroke-width="1" fill-rule="evenodd">
            <path d="M38,4.10031 L38,3.05964 C38,1.36981 36.6309,0 34.9421,0 L3.05786,0 C1.36914,0 0,1.36981 0,3.05964 L0,58.231 L76,58.231 L76,7.15995 C76,5.47012 74.6309,4.10031 72.9421,4.10031 L38,4.10031 Z" id="路径" fill="#F9DF5C"></path>
            <polygon id="路径" fill="#FFFFFF" points="73.3365 8.50909 3.3739 8.50909 3.3739 58.7906 73.3365 58.7906"></polygon>
            <path d="M36.9161,14.7961 L35.7879,17.9258 L3.05786,17.9258 C1.36914,17.9258 0,19.2956 0,20.9854 L0,59.9404 C0,61.6302 1.36914,63 3.05786,63 L72.9421,63 C74.6309,63 76,61.6302 76,59.9404 L76,15.8342 C76,14.1444 74.6309,12.7746 72.9421,12.7746 L39.7926,12.7746 C38.5039,12.7746 37.3534,13.583 36.9161,14.7961 Z" id="路径" fill="#F3CC30"></path>
            <path d="M76,59.9404 L76,34.5427 C54.8901,55.0881 18.2747,60.5855 0.85022,62.0538 C1.40679,62.6358 2.18921,63 3.05789,63 L72.942,63 C74.6309,63 76,61.6301 76,59.9404 Z" id="路径" fill="#EDBD31"></path>
            <path d="M30.8628,20.3884 L5.02001,20.3884 C3.65632,20.3884 2.5509,21.4945 2.5509,22.859 L2.5509,28.3317 C6.89785,25.3519 16.7068,21.5983 30.8628,20.3884 Z" id="路径" fill="#F6D738"></path>
        </g>
        <path d="M17.21517,30.95 C15.7714021,30.95 14.4508827,31.2226029 13.2536118,31.7678088 C12.0783495,32.2954273 11.1407808,33.0340933 10.4541107,33.9838067 C9.77089661,34.9068738 9.40912396,36.0280446 9.42410553,37.1758989 C9.42410553,38.5301198 9.76744057,39.6205316 10.4541107,40.4471339 C11.1583877,41.2561491 11.9771097,41.8629104 12.9102768,42.2674179 C13.8434438,42.6543382 15.0099026,43.0412584 16.396448,43.4281787 C17.4880773,43.7271626 18.3244063,44.0085591 18.9054348,44.2679716 C19.3727616,44.4364322 19.7904217,44.7190964 20.1203127,45.0901772 C20.3719396,45.4036252 20.5030808,45.79661 20.4900581,46.1981761 C20.4900581,46.8137311 20.16433,47.3149687 19.5128738,47.701889 C18.8790245,48.0888093 18.033892,48.2822694 16.9774765,48.2822694 C14.8646455,48.2822694 13.2976291,47.2797942 12.2764274,45.2748437 L8.8166666,47.5963653 C9.50333669,49.0385227 10.5509488,50.1816962 11.9595028,51.0258859 C13.3680568,51.8524882 15.0319112,52.2657895 16.9510661,52.2657895 C18.5180824,52.2657895 19.9090296,52.0107738 21.1239074,51.5007426 C22.3563922,50.973124 23.3071662,50.2344581 23.9762293,49.2847447 C24.6628994,48.3174439 25.0062345,47.209445 25.0062345,45.9607478 C25.0062345,44.6065269 24.654096,43.5161151 23.949819,42.6895128 C23.3021722,41.8923024 22.467581,41.2670572 21.5200633,40.8692288 C20.3978738,40.402406 19.2411579,40.0231442 18.0603024,39.7348489 C17.2203961,39.5114844 16.3918877,39.2473618 15.5777259,38.9434211 C15.1148746,38.7780876 14.6919731,38.5174394 14.3364377,38.1783742 C14.0698723,37.8717823 13.9284634,37.4762789 13.9402819,37.0703752 C13.9402819,36.4548203 14.2484031,35.9447889 14.8646455,35.5402814 C15.5553047,35.1189948 16.3534081,34.9067101 17.1623492,34.9291232 C18.0603024,34.9291232 18.8878279,35.1709484 19.6449257,35.6458051 C20.4020235,36.1030745 21.0270693,36.7450105 21.5200633,37.5716128 L24.8213618,35.329234 C24.1713063,34.0282958 23.1635757,32.9393305 21.9162191,32.1899036 C20.6309135,31.3633012 19.0638972,30.95 17.21517,30.95 L17.21517,30.95 Z M27.5108197,31.3457139 L27.5108197,51.9228374 L31.7893025,51.9228374 L31.7893025,39.4446587 L31.9477649,39.4446587 L36.7236433,46.7521756 L39.9765228,46.7521756 L44.7303927,39.3655159 L44.888855,39.3655159 L44.888855,51.9228374 L49.1673379,51.9228374 L49.1673379,31.3457139 L45.2057797,31.3457139 L38.4183099,41.8980849 L38.2598476,41.8980849 L31.4723779,31.3457139 L27.5108197,31.3457139 L27.5108197,31.3457139 Z M52.4466277,31.3457139 L52.4466277,51.9228374 L61.7122722,51.9228374 C63.9659586,51.9228374 65.713446,51.4040125 66.9459307,50.3663627 C68.1960224,49.3287129 68.8166666,47.8865555 68.8166666,46.0398906 C68.8166666,44.7384315 68.5041437,43.691988 67.8702943,42.9005602 C67.2042113,42.0704296 66.2869075,41.4780867 65.2556659,41.2121808 L65.2556659,41.0538953 C66.0283556,40.7706874 66.6869549,40.2425425 67.1308034,39.5501824 C67.6081672,38.7547654 67.8465249,37.8390277 67.8174735,36.9120896 C67.8174735,35.1005992 67.2320432,33.7199974 66.0699862,32.770284 C64.9079292,31.8205706 63.2616817,31.3457139 61.1312437,31.3457139 L52.4466277,31.3457139 Z M61.2148765,43.4281787 C62.1304367,43.4281787 62.8699275,43.6216388 63.4333491,44.0085591 C63.994774,44.3466725 64.3271516,44.9634972 64.3004902,45.6177957 C64.3391661,46.2967973 64.0204857,46.9467803 63.4597595,47.332556 C62.8963379,47.7194763 62.1480435,47.9129364 61.2148765,47.9129364 L56.8571625,47.9129364 L56.8571625,43.4281787 L61.2148765,43.4281787 L61.2148765,43.4281787 Z M60.6030359,35.329234 C61.4657753,35.329234 62.1304367,35.4963131 62.583815,35.8304716 C63.041595,36.1470427 63.2748868,36.630693 63.2748868,37.2814226 C63.2748868,37.9849141 63.0371933,38.5213262 62.5618063,38.8906592 C62.0864193,39.2599922 61.4261596,39.4446587 60.5810272,39.4446587 L56.8571625,39.4446587 L56.8571625,35.329234 L60.6030359,35.329234 L60.6030359,35.329234 Z" id="形状" fill="#9C8800" fill-rule="nonzero"></path>
    </g>
</svg>