<?xml version="1.0" encoding="UTF-8"?>
<svg width="76px" height="63px" viewBox="0 0 76 63" version="1.1" xmlns="http://www.w3.org/2000/svg" xmlns:xlink="http://www.w3.org/1999/xlink">
    <title>WebDAV</title>
    <g id="WebDAV" stroke="none" fill="none">
        <g id="编组" stroke-width="1" fill-rule="evenodd">
            <path d="M38,4.10031 L38,3.05964 C38,1.36981 36.6309,0 34.9421,0 L3.05786,0 C1.36914,0 0,1.36981 0,3.05964 L0,58.231 L76,58.231 L76,7.15995 C76,5.47012 74.6309,4.10031 72.9421,4.10031 L38,4.10031 Z" id="路径" fill="#F9DF5C"></path>
            <polygon id="路径" fill="#FFFFFF" points="73.3365 8.50909 3.3739 8.50909 3.3739 58.7906 73.3365 58.7906"></polygon>
            <path d="M36.9161,14.7961 L35.7879,17.9258 L3.05786,17.9258 C1.36914,17.9258 0,19.2956 0,20.9854 L0,59.9404 C0,61.6302 1.36914,63 3.05786,63 L72.9421,63 C74.6309,63 76,61.6302 76,59.9404 L76,15.8342 C76,14.1444 74.6309,12.7746 72.9421,12.7746 L39.7926,12.7746 C38.5039,12.7746 37.3534,13.583 36.9161,14.7961 Z" id="路径" fill="#F3CC30"></path>
            <path d="M76,59.9404 L76,34.5427 C54.8901,55.0881 18.2747,60.5855 0.85022,62.0538 C1.40679,62.6358 2.18921,63 3.05789,63 L72.942,63 C74.6309,63 76,61.6301 76,59.9404 Z" id="路径" fill="#EDBD31"></path>
            <path d="M30.8628,20.3884 L5.02001,20.3884 C3.65632,20.3884 2.5509,21.4945 2.5509,22.859 L2.5509,28.3317 C6.89785,25.3519 16.7068,21.5983 30.8628,20.3884 Z" id="路径" fill="#F6D738"></path>
        </g>
        <path d="M38,24 C47.3879464,24 55,31.6041585 55,40.982368 C55,44.4999512 53.9290956,47.7679513 52.0952511,50.4787235 L52.0942077,56.1440035 C52.0942077,57.3813345 51.4748998,58 50.2362842,58 L26.0832787,58 C24.844663,58 24.2253552,57.3813345 24.2253552,56.1440035 L24.2253075,50.9362147 C22.1963065,48.1392313 21,44.7002042 21,40.982368 C21,31.6041585 28.6120536,24 38,24 Z M31.6477679,42.043766 L23.1819196,42.043766 C23.2937878,43.6266154 23.6538207,45.1412902 24.2243245,46.5492799 L24.2253552,45.9360227 C24.2253552,44.6986917 24.844663,44.0800262 26.0832787,44.0800262 L31.7407773,44.0814702 C31.6947504,43.415445 31.6634238,42.7355237 31.6477679,42.043766 Z M52.821875,42.043766 L44.3560268,42.043766 C44.3403552,42.7350084 44.3089818,43.4147735 44.2628798,44.0808737 L50.2362842,44.0800262 C51.3975762,44.0800262 52.0144705,44.6238594 52.086967,45.7115258 C52.4791604,44.5474733 52.7304518,43.3179437 52.821875,42.043766 Z M42.2272321,42.043766 L33.7689732,42.043766 C33.7867088,42.7486568 33.8196697,43.4281983 33.8663028,44.0818265 L42.1322212,44.0821657 C42.1785477,43.4281748 42.2107381,42.7484721 42.2272321,42.043766 Z M49.2662946,31.3084834 C47.615625,32.3888349 45.7638393,33.2341626 43.7716518,33.8027687 C44.1017857,35.6791687 44.3066964,37.7413134 44.3560268,39.92097 L52.821875,39.92097 C52.5866071,36.6420083 51.2926339,33.6587218 49.2662946,31.3084834 Z M26.7261161,31.3122741 C24.7035714,33.6625125 23.4133929,36.6457991 23.178125,39.92097 L31.6439732,39.92097 C31.6933036,37.7413134 31.8982143,35.6791687 32.2283482,33.798978 C30.2323661,33.2303719 28.3767857,32.3926256 26.7261161,31.3122741 Z M34.2964286,34.2841885 C34.0118304,35.9255647 33.8183036,37.8095461 33.7689732,39.92097 L42.2310268,39.92097 C42.1779018,37.8133369 41.9881696,35.9293554 41.7035714,34.2879792 C40.5044643,34.5002588 39.2674107,34.61398 38,34.61398 C36.7287946,34.61398 35.4955357,34.4964681 34.2964286,34.2841885 Z M38,26.122796 C37.2183036,26.122796 35.7232143,28.2190571 34.7290179,32.206881 C35.7877232,32.3926256 36.8805804,32.491184 38,32.491184 C39.1194196,32.491184 40.2122768,32.3888349 41.2709821,32.206881 C40.2767857,28.2190571 38.7816964,26.122796 38,26.122796 Z M41.3241071,26.5094481 C42.1323661,27.8286142 42.8229911,29.6064559 43.3390625,31.7178798 C44.9176339,31.2554135 46.3975446,30.5996211 47.7370536,29.773247 C45.9270089,28.2038942 43.7375,27.0628914 41.3241071,26.5094481 Z M34.6758929,26.5132388 C32.2625,27.0666821 30.0767857,28.2038942 28.2667411,29.773247 C29.60625,30.5958304 31.0823661,31.2554135 32.6609375,31.7178798 C33.1808036,29.6064559 33.8676339,27.8286142 34.6758929,26.5132388 Z M26.5830601,46.4352858 L26.5830601,55.7152683 L29.2361749,55.7152683 C30.4345355,55.7152683 31.3542077,55.2865331 31.9970492,54.4420547 C32.6064481,53.6365522 32.9167213,52.5043943 32.9167213,51.075277 C32.9167213,49.6201758 32.6268852,48.4898739 32.0620765,47.7084994 C31.4396721,46.851029 30.5311475,46.4352858 29.3216393,46.4352858 L26.5830601,46.4352858 Z M27.46,47.357716 L29.1822951,47.357716 C30.1874317,47.357716 30.9157377,47.6695234 31.3857923,48.3061302 C31.8261202,48.9056171 32.049071,49.8280474 32.049071,51.075277 C32.049071,52.2835308 31.8038251,53.207817 31.3337705,53.8314318 C30.8302732,54.4680386 30.0815301,54.792838 29.0856831,54.792838 L27.46,54.792838 L27.46,47.357716 L27.46,47.357716 Z M36.5285246,46.4352858 L32.9167213,55.7152683 L34.0481967,55.7152683 L35.0254645,53.1168732 L39.2410929,53.1168732 L40.2183607,55.7152683 L41.3609836,55.7152683 L37.7491803,46.4352858 L36.5285246,46.4352858 L36.5285246,46.4352858 Z M35.3580328,52.2185709 L37.1193443,47.5785796 L37.1713661,47.5785796 L38.9066667,52.2185709 L35.3580328,52.2185709 Z M41.3628415,46.4352858 L44.9059016,55.7152683 L46.2621858,55.7152683 L49.8071038,46.4352858 L48.5994536,46.4352858 L45.6044809,54.5589825 L45.5636066,54.5589825 L42.5704918,46.4352858 L41.3628415,46.4352858 Z" id="形状" fill="#9C8800" fill-rule="nonzero"></path>
    </g>
</svg>